<svg width="99.085" height="25.34" viewBox="0 0 99.085 25.34" xmlns="http://www.w3.org/2000/svg"><g id="svgGroup" stroke-linecap="round" fill-rule="evenodd" font-size="9pt" stroke="#000" stroke-width="0.4mm" fill="#000" style="stroke:#000;stroke-width:0.4mm;fill:#000"><path d="M 51.205 24.99 L 42.875 24.99 L 42.875 23.52 L 43.19 23.52 A 5.501 5.501 0 0 0 43.998 23.464 Q 44.424 23.401 44.775 23.266 A 2.71 2.71 0 0 0 45.22 23.047 Q 45.915 22.621 46.81 21.524 A 16.027 16.027 0 0 0 47.005 21.28 L 51.415 15.575 L 47.005 9.555 A 9.82 9.82 0 0 0 46.435 8.934 Q 46.142 8.643 45.857 8.418 A 4.932 4.932 0 0 0 45.518 8.172 A 2.839 2.839 0 0 0 44.574 7.764 A 2.637 2.637 0 0 0 43.995 7.7 L 43.54 7.7 L 43.54 6.23 L 52.43 6.23 L 52.43 7.7 L 52.325 7.7 A 7.473 7.473 0 0 0 51.81 7.716 Q 51.045 7.769 50.736 7.995 A 0.711 0.711 0 0 0 50.732 7.997 A 1.175 1.175 0 0 0 50.512 8.206 A 0.794 0.794 0 0 0 50.33 8.715 A 1.253 1.253 0 0 0 50.428 9.194 A 1.642 1.642 0 0 0 50.54 9.415 Q 50.701 9.683 50.964 10.074 A 31.663 31.663 0 0 0 51.135 10.325 L 53.445 13.475 L 55.265 10.85 Q 55.65 10.255 55.895 9.713 Q 56.14 9.17 56.14 8.715 A 1.11 1.11 0 0 0 56.098 8.397 Q 55.988 8.031 55.598 7.893 Q 55.166 7.739 54.568 7.708 A 6.088 6.088 0 0 0 54.25 7.7 L 54.145 7.7 L 54.145 6.23 L 61.81 6.23 L 61.81 7.7 L 61.495 7.7 Q 60.48 7.7 59.745 8.102 A 2.73 2.73 0 0 0 59.307 8.411 Q 58.877 8.772 58.361 9.416 A 14.947 14.947 0 0 0 57.96 9.94 L 54.355 14.735 L 59.5 21.665 A 9.177 9.177 0 0 0 59.973 22.241 Q 60.22 22.517 60.458 22.727 A 3.611 3.611 0 0 0 60.952 23.1 A 3.074 3.074 0 0 0 61.546 23.387 A 2.27 2.27 0 0 0 62.3 23.52 L 62.755 23.52 L 62.755 24.99 L 53.725 24.99 L 53.725 23.52 L 53.9 23.52 A 5.703 5.703 0 0 0 54.614 23.479 Q 55.352 23.386 55.697 23.076 A 0.91 0.91 0 0 0 56 22.365 A 1.35 1.35 0 0 0 55.95 22.011 Q 55.885 21.773 55.738 21.508 A 5.474 5.474 0 0 0 55.572 21.233 Q 55.287 20.785 54.724 20.024 A 50.012 50.012 0 0 0 54.67 19.95 L 52.325 16.8 L 49.875 20.23 A 5.766 5.766 0 0 0 49.599 20.634 Q 49.466 20.847 49.334 21.094 A 10.222 10.222 0 0 0 49.245 21.263 A 3.11 3.11 0 0 0 49.03 21.788 A 2.241 2.241 0 0 0 48.93 22.435 Q 48.93 22.929 49.324 23.191 A 1.194 1.194 0 0 0 49.438 23.258 A 1.756 1.756 0 0 0 49.795 23.39 Q 50.287 23.52 51.1 23.52 L 51.205 23.52 L 51.205 24.99 Z M 24.255 18.48 L 24.255 10.08 A 4.265 4.265 0 0 0 24.208 9.42 Q 24.066 8.517 23.496 8.173 A 1.289 1.289 0 0 0 23.397 8.12 A 4.026 4.026 0 0 0 22.282 7.771 A 5.454 5.454 0 0 0 21.385 7.7 L 21.28 7.7 L 21.28 6.23 L 27.545 6.23 L 27.545 18.305 A 10.872 10.872 0 0 0 27.62 19.628 Q 27.786 20.974 28.315 21.84 Q 29.085 23.1 31.22 23.1 A 5.378 5.378 0 0 0 32.526 22.952 A 3.369 3.369 0 0 0 34.58 21.542 Q 35.63 19.985 35.63 17.43 L 35.63 10.22 A 4.95 4.95 0 0 0 35.584 9.517 Q 35.47 8.725 35.072 8.341 A 1.207 1.207 0 0 0 34.79 8.138 Q 33.987 7.719 32.864 7.701 A 6.35 6.35 0 0 0 32.76 7.7 L 32.655 7.7 L 32.655 6.23 L 38.92 6.23 L 38.92 21.175 A 4.246 4.246 0 0 0 38.967 21.834 Q 39.107 22.719 39.661 23.055 A 1.252 1.252 0 0 0 39.777 23.118 A 4.123 4.123 0 0 0 40.836 23.443 A 5.631 5.631 0 0 0 41.79 23.52 L 41.895 23.52 L 41.895 24.99 L 36.33 24.99 L 35.875 22.155 L 35.7 22.155 A 8.433 8.433 0 0 1 34.969 23.272 Q 34.155 24.311 33.18 24.728 A 7.71 7.71 0 0 1 30.689 25.317 A 9.172 9.172 0 0 1 30.03 25.34 Q 27.265 25.34 25.76 23.713 Q 24.283 22.116 24.256 18.615 A 17.013 17.013 0 0 1 24.255 18.48 Z M 18.76 24.99 L 0 24.99 L 0 23.52 L 0.455 23.52 Q 1.581 23.52 2.393 23.129 A 3.296 3.296 0 0 0 2.485 23.083 A 1.322 1.322 0 0 0 3.067 22.453 Q 3.325 21.912 3.325 21 L 3.325 3.99 A 4.95 4.95 0 0 0 3.279 3.287 Q 3.165 2.495 2.767 2.111 A 1.207 1.207 0 0 0 2.485 1.908 Q 1.682 1.489 0.559 1.471 A 6.35 6.35 0 0 0 0.455 1.47 L 0 1.47 L 0 0 L 10.185 0 L 10.185 1.47 L 9.73 1.47 Q 8.575 1.47 7.718 1.89 A 1.342 1.342 0 0 0 7.076 2.586 Q 6.86 3.077 6.86 3.85 L 6.86 23.24 L 13.755 23.24 A 3.814 3.814 0 0 0 14.458 23.179 Q 14.87 23.102 15.199 22.926 A 2.128 2.128 0 0 0 15.453 22.768 Q 16.1 22.295 16.415 21.56 A 5.937 5.937 0 0 0 16.786 20.377 A 5.373 5.373 0 0 0 16.835 20.09 L 17.185 17.465 L 19.005 17.465 L 18.76 24.99 Z M 94.395 24.99 L 84.28 24.99 L 84.28 23.52 L 84.385 23.52 Q 85.511 23.52 86.323 23.129 A 3.296 3.296 0 0 0 86.415 23.083 A 1.322 1.322 0 0 0 86.997 22.453 Q 87.255 21.912 87.255 21 L 87.255 10.08 A 4.265 4.265 0 0 0 87.208 9.42 Q 87.066 8.517 86.496 8.173 A 1.289 1.289 0 0 0 86.397 8.12 A 4.026 4.026 0 0 0 85.282 7.771 A 5.454 5.454 0 0 0 84.385 7.7 L 84.28 7.7 L 84.28 6.23 L 89.67 6.23 L 90.335 9.695 L 90.51 9.695 Q 90.965 8.645 91.49 7.77 Q 92.015 6.895 92.89 6.387 A 3.275 3.275 0 0 1 93.675 6.068 Q 94.064 5.962 94.531 5.916 A 7.847 7.847 0 0 1 95.305 5.88 A 8.913 8.913 0 0 1 96.309 5.933 Q 97.491 6.067 98.158 6.545 A 2.131 2.131 0 0 1 99.067 8.1 A 2.948 2.948 0 0 1 99.085 8.435 A 2.553 2.553 0 0 1 98.925 9.353 A 2.292 2.292 0 0 1 98.332 10.22 Q 97.627 10.876 96.044 10.917 A 8.294 8.294 0 0 1 95.83 10.92 Q 95.83 9.485 95.41 8.838 A 1.342 1.342 0 0 0 94.628 8.274 Q 94.34 8.19 93.975 8.19 Q 92.995 8.19 92.33 8.96 A 4.864 4.864 0 0 0 91.686 9.928 A 6.699 6.699 0 0 0 91.28 10.92 Q 90.895 12.11 90.72 13.388 A 20.827 20.827 0 0 0 90.6 14.455 Q 90.545 15.109 90.545 15.68 L 90.545 21.175 A 4.246 4.246 0 0 0 90.592 21.834 Q 90.732 22.719 91.286 23.055 A 1.252 1.252 0 0 0 91.402 23.118 A 4.123 4.123 0 0 0 92.461 23.443 A 5.631 5.631 0 0 0 93.415 23.52 L 94.395 23.52 L 94.395 24.99 Z M 70.416 25.014 A 9.528 9.528 0 0 0 72.975 25.34 A 13.32 13.32 0 0 0 73.246 25.337 Q 74.547 25.311 75.639 25.028 A 6.674 6.674 0 0 0 79.117 22.925 A 7.349 7.349 0 0 0 80.391 20.747 Q 81.2 18.65 81.2 15.575 A 18.304 18.304 0 0 0 81.068 13.314 Q 80.899 11.958 80.513 10.853 A 7.445 7.445 0 0 0 79.03 8.277 A 6.982 6.982 0 0 0 75.639 6.203 A 9.593 9.593 0 0 0 73.08 5.88 A 13.298 13.298 0 0 0 72.711 5.885 Q 71.436 5.92 70.365 6.203 A 6.668 6.668 0 0 0 66.938 8.277 Q 64.855 10.675 64.855 15.575 Q 64.855 20.51 67.025 22.925 A 6.974 6.974 0 0 0 70.416 25.014 Z M 73.045 23.52 Q 75.67 23.52 76.738 21.508 A 7.442 7.442 0 0 0 77.334 19.94 Q 77.739 18.426 77.796 16.29 A 26.876 26.876 0 0 0 77.805 15.575 A 22.801 22.801 0 0 0 77.719 13.525 Q 77.532 11.463 76.939 10.136 A 5.767 5.767 0 0 0 76.72 9.695 Q 75.635 7.735 73.01 7.735 A 5.466 5.466 0 0 0 71.589 7.908 A 3.529 3.529 0 0 0 69.317 9.695 Q 68.351 11.47 68.26 14.852 A 26.801 26.801 0 0 0 68.25 15.575 A 22.941 22.941 0 0 0 68.336 17.629 Q 68.529 19.775 69.16 21.154 A 6.001 6.001 0 0 0 69.335 21.507 A 3.621 3.621 0 0 0 71.935 23.417 A 5.652 5.652 0 0 0 73.045 23.52 Z" vector-effect="non-scaling-stroke"/></g></svg>